<svg width="88" height="32" viewBox="0 0 88 32" fill="none" xmlns="http://www.w3.org/2000/svg">
<path d="M10.75 5C7.57485 5 5 7.60947 5 10.8289C5 13.4278 6.00625 19.5958 15.9112 25.831C16.0886 25.9415 16.2923 26 16.5 26C16.7077 26 16.9114 25.9415 17.0888 25.831C26.9937 19.5958 28 13.4278 28 10.8289C28 7.60947 25.4251 5 22.25 5C19.0748 5 16.5 8.53267 16.5 8.53267C16.5 8.53267 13.9251 5 10.75 5Z" stroke="#454F5B" stroke-width="2" stroke-linecap="round" stroke-linejoin="round"/>
<path d="M62.6667 9.33325H81.0534C81.4259 9.33327 81.7943 9.41135 82.1349 9.56246C82.4754 9.71357 82.7805 9.93437 83.0305 10.2106C83.2805 10.4868 83.4698 10.8124 83.5863 11.1663C83.7027 11.5202 83.7438 11.8945 83.7067 12.2653L82.9067 20.2653C82.8409 20.9233 82.5329 21.5334 82.0426 21.9771C81.5523 22.4208 80.9146 22.6666 80.2534 22.6666H67.52C66.9033 22.6668 66.3056 22.4533 65.8286 22.0624C65.3516 21.6715 65.0249 21.1273 64.904 20.5226L62.6667 9.33325Z" stroke="#454F5B" stroke-width="2" stroke-linecap="round" stroke-linejoin="round"/>
<path d="M62.6667 9.33333L61.5867 5.00933C61.5145 4.721 61.348 4.46508 61.1136 4.28221C60.8793 4.09934 60.5906 4.00001 60.2934 4H58.6667" stroke="#454F5B" stroke-width="2" stroke-linecap="round" stroke-linejoin="round"/>
<path d="M66.6667 28H69.3334" stroke="#454F5B" stroke-width="2" stroke-linecap="round" stroke-linejoin="round"/>
<path d="M77.3333 28H80" stroke="#454F5B" stroke-width="2" stroke-linecap="round" stroke-linejoin="round"/>
</svg>
